<svg width="60" height="57" viewBox="0 0 60 57" fill="none" xmlns="http://www.w3.org/2000/svg">
<rect width="60" height="57" fill="#1E1E1E"/>
<rect width="60" height="57" fill="#6B9BD2"/>
<path d="M11.3132 23V5.54545H18.5234C19.8303 5.54545 20.9581 5.78125 21.907 6.25284C22.8615 6.71875 23.5973 7.3892 24.1143 8.2642C24.6314 9.13352 24.8899 10.1648 24.8899 11.358C24.8899 12.5682 24.6257 13.5966 24.0973 14.4432C23.5689 15.2841 22.8189 15.9261 21.8473 16.3693C20.8757 16.8068 19.7251 17.0256 18.3956 17.0256H13.8359V13.7017H17.6115C18.2479 13.7017 18.7791 13.6193 19.2053 13.4545C19.6371 13.2841 19.9638 13.0284 20.1854 12.6875C20.407 12.3409 20.5178 11.8977 20.5178 11.358C20.5178 10.8182 20.407 10.3722 20.1854 10.0199C19.9638 9.66193 19.6371 9.39489 19.2053 9.21875C18.7734 9.03693 18.2422 8.94602 17.6115 8.94602H15.532V23H11.3132ZM21.1399 15.0227L25.4865 23H20.8842L16.6229 15.0227H21.1399ZM37.5163 23V5.54545H49.6868V8.97159H41.7351V12.5511H49.0646V15.9858H41.7351V19.5739H49.6868V23H37.5163ZM11.946 52V34.5455H19.1562C20.4631 34.5455 21.5909 34.8011 22.5398 35.3125C23.4943 35.8182 24.2301 36.5256 24.7472 37.4347C25.2642 38.3381 25.5227 39.3892 25.5227 40.5881C25.5227 41.7926 25.2585 42.8466 24.7301 43.75C24.2074 44.6477 23.4602 45.3437 22.4886 45.8381C21.517 46.3324 20.3636 46.5795 19.0284 46.5795H14.5795V43.2557H18.2443C18.8807 43.2557 19.4119 43.1449 19.8381 42.9233C20.2699 42.7017 20.5966 42.392 20.8182 41.9943C21.0398 41.5909 21.1506 41.1222 21.1506 40.5881C21.1506 40.0483 21.0398 39.5824 20.8182 39.1903C20.5966 38.7926 20.2699 38.4858 19.8381 38.2699C19.4063 38.054 18.875 37.946 18.2443 37.946H16.1648V52H11.946ZM49.233 43.2727C49.233 45.1932 48.8636 46.821 48.125 48.1562C47.3864 49.4915 46.3864 50.5057 45.125 51.1989C43.8693 51.892 42.4602 52.2386 40.8977 52.2386C39.3295 52.2386 37.9176 51.8892 36.6619 51.1903C35.4063 50.4915 34.4091 49.4773 33.6705 48.1477C32.9375 46.8125 32.571 45.1875 32.571 43.2727C32.571 41.3523 32.9375 39.7244 33.6705 38.3892C34.4091 37.054 35.4063 36.0398 36.6619 35.3466C37.9176 34.6534 39.3295 34.3068 40.8977 34.3068C42.4602 34.3068 43.8693 34.6534 45.125 35.3466C46.3864 36.0398 47.3864 37.054 48.125 38.3892C48.8636 39.7244 49.233 41.3523 49.233 43.2727ZM44.9205 43.2727C44.9205 42.1364 44.7585 41.1761 44.4347 40.392C44.1165 39.608 43.6563 39.0142 43.054 38.6108C42.4574 38.2074 41.7386 38.0057 40.8977 38.0057C40.0625 38.0057 39.3438 38.2074 38.7415 38.6108C38.1392 39.0142 37.6761 39.608 37.3523 40.392C37.0341 41.1761 36.875 42.1364 36.875 43.2727C36.875 44.4091 37.0341 45.3693 37.3523 46.1534C37.6761 46.9375 38.1392 47.5312 38.7415 47.9347C39.3438 48.3381 40.0625 48.5398 40.8977 48.5398C41.7386 48.5398 42.4574 48.3381 43.054 47.9347C43.6563 47.5312 44.1165 46.9375 44.4347 46.1534C44.7585 45.3693 44.9205 44.4091 44.9205 43.2727Z" fill="white"/>
</svg>
